<svg width="18" height="18" viewBox="0 0 18 18" fill="none" xmlns="http://www.w3.org/2000/svg">
<path d="M9.00734 17.055C8.53484 17.055 8.06984 16.8975 7.70234 16.5825L6.51734 15.57C6.39734 15.465 6.09734 15.36 5.93984 15.36H4.62734C3.51734 15.36 2.61734 14.46 2.61734 13.35V12.0675C2.61734 11.91 2.51234 11.61 2.41484 11.4975L1.39484 10.2975C0.779844 9.57 0.779844 8.43 1.39484 7.695L2.41484 6.495C2.51234 6.3825 2.61734 6.0825 2.61734 5.925V4.65C2.61734 3.54 3.51734 2.64 4.62734 2.64H5.92484C6.08234 2.64 6.37484 2.5275 6.50234 2.4225L7.68734 1.41C8.42234 0.787498 9.56984 0.787498 10.3048 1.41L11.4898 2.4225C11.6098 2.5275 11.9173 2.6325 12.0748 2.6325H13.3498C14.4598 2.6325 15.3598 3.5325 15.3598 4.6425V5.9175C15.3598 6.075 15.4723 6.3675 15.5773 6.495L16.5898 7.68C17.2198 8.4225 17.2123 9.57 16.5898 10.2975L15.5773 11.4825C15.4723 11.61 15.3673 11.9025 15.3673 12.06V13.335C15.3673 14.445 14.4673 15.345 13.3573 15.345H12.0823C11.9248 15.345 11.6323 15.4575 11.4973 15.5625L10.3123 16.575C9.94484 16.8975 9.47234 17.055 9.00734 17.055ZM4.62734 3.765C4.13984 3.765 3.74234 4.1625 3.74234 4.65V5.925C3.74234 6.3525 3.54734 6.8925 3.26984 7.2225L2.24984 8.4225C1.99484 8.73 1.99484 9.27 2.24984 9.57L3.26234 10.7625C3.53234 11.07 3.73484 11.6325 3.73484 12.06V13.3425C3.73484 13.83 4.13234 14.2275 4.61984 14.2275H5.92484C6.34484 14.2275 6.89984 14.43 7.22984 14.7075L8.42234 15.7275C8.72984 15.99 9.26984 15.99 9.57734 15.7275L10.7623 14.715C11.0998 14.43 11.6473 14.235 12.0673 14.235H13.3423C13.8298 14.235 14.2273 13.8375 14.2273 13.35V12.075C14.2273 11.655 14.4298 11.1075 14.7073 10.77L15.7273 9.5775C15.9898 9.27 15.9898 8.73 15.7273 8.4225L14.7148 7.2375C14.4298 6.9 14.2348 6.3525 14.2348 5.9325V4.65C14.2348 4.1625 13.8373 3.765 13.3498 3.765H12.0748C11.6473 3.765 11.0923 3.5625 10.7623 3.285L9.56984 2.265C9.26234 2.0025 8.72984 2.0025 8.41484 2.265L7.23734 3.285C6.89984 3.5625 6.35234 3.765 5.92484 3.765H4.62734Z" fill="#86868A"/>
<path d="M9 12.6525C8.5875 12.6525 8.25 12.315 8.25 11.9025C8.25 11.49 8.58 11.1525 9 11.1525C9.4125 11.1525 9.75 11.49 9.75 11.9025C9.75 12.315 9.42 12.6525 9 12.6525Z" fill="#86868A"/>
<path d="M9 10.29C8.6925 10.29 8.4375 10.035 8.4375 9.7275V6.0975C8.4375 5.79 8.6925 5.535 9 5.535C9.3075 5.535 9.5625 5.79 9.5625 6.0975V9.72C9.5625 10.035 9.315 10.29 9 10.29Z" fill="#86868A"/>
</svg>
